<svg width="103" height="23" viewBox="0 0 103 23" fill="none" xmlns="http://www.w3.org/2000/svg">
<path d="M0.125 0.545454V18H4.76136V7.84091H4.89773L8.78409 17.8636H11.5795L15.4659 7.90909H15.6023V18H20.2386V0.545454H14.3409L10.2841 10.4318H10.0795L6.02273 0.545454H0.125ZM25.4162 22.9091C28.706 22.9091 30.2486 21.2557 30.973 19.0909L35.7457 4.90909H30.8026L28.6548 13.9773H28.5185L26.4048 4.90909H21.4957L26.098 18.5795L25.9957 18.8182C25.6804 19.5426 24.7685 19.517 23.6094 19.108L22.5866 22.4489C23.3196 22.7386 24.3338 22.9091 25.4162 22.9091Z" fill="#BB1E1E"/>
<path d="M52.1179 0.545454H47.3793V9.68182H47.2429L41.0384 0.545454H37.0156V18H41.7543V8.82955H41.8565L48.1634 18H52.1179V0.545454ZM60.7003 18.2386C64.331 18.2386 66.6662 16.5 67.1094 13.7727H62.8139C62.5412 14.5142 61.7656 14.9318 60.8026 14.9318C59.4048 14.9318 58.5866 14.0114 58.5866 12.75V12.5455H67.1094V11.4545C67.1094 7.28693 64.5526 4.73864 60.598 4.73864C56.5412 4.73864 53.9503 7.43182 53.9503 11.4886C53.9503 15.7244 56.5071 18.2386 60.7003 18.2386ZM58.5866 9.95455C58.6122 8.82102 59.5497 8.04545 60.7003 8.04545C61.8679 8.04545 62.7543 8.82955 62.7798 9.95455H58.5866ZM71.1832 18H76.2628L78.1037 10.9773H78.2401L80.081 18H85.1605L88.4332 4.90909H83.7287L82.2969 12.8182H82.1946L80.456 4.90909H75.8878L74.2173 12.8864H74.1151L72.6151 4.90909H67.9105L71.1832 18ZM101.831 9.17045C101.712 6.40057 99.4105 4.73864 95.6264 4.73864C91.8849 4.73864 89.5753 6.27273 89.5923 9C89.5753 11.0625 90.9134 12.3835 93.581 12.8523L95.8991 13.2614C96.9219 13.4489 97.3821 13.7216 97.3991 14.2159C97.3821 14.7614 96.7599 15.0682 95.8991 15.0682C94.8338 15.0682 94.0838 14.608 93.956 13.7727H89.2855C89.5412 16.4574 91.8594 18.2386 95.8651 18.2386C99.4872 18.2386 102.155 16.4744 102.172 13.6705C102.155 11.7358 100.859 10.6108 98.1832 10.125L95.5241 9.64773C94.527 9.46875 94.2457 9.1108 94.2628 8.72727C94.2457 8.18182 94.919 7.875 95.7287 7.875C96.6577 7.875 97.4332 8.36932 97.5014 9.17045H101.831Z" fill="#1D1D1B"/>
</svg>
